<mxfile host="Electron" modified="2024-02-20T19:50:59.611Z" agent="Mozilla/5.0 (Windows NT 10.0; Win64; x64) AppleWebKit/537.36 (KHTML, like Gecko) draw.io/23.0.2 Chrome/120.0.6099.109 Electron/28.1.0 Safari/537.36" etag="MZP-Zx9veKILFk1G5eb-" version="23.0.2" type="device">
  <diagram name="Page-1" id="ZBL9RMtgrQHNYbh2ApQ_">
    <mxGraphModel dx="4780" dy="2847" grid="1" gridSize="10" guides="1" tooltips="1" connect="1" arrows="1" fold="1" page="1" pageScale="1" pageWidth="850" pageHeight="1400" math="0" shadow="0">
      <root>
        <mxCell id="0" />
        <mxCell id="1" parent="0" />
        <mxCell id="xneqZ8ylWnATX5Zpt98E-1" value="" style="rounded=0;whiteSpace=wrap;html=1;sketch=1;hachureGap=4;jiggle=2;curveFitting=1;fontFamily=Architects Daughter;fontSource=https%3A%2F%2Ffonts.googleapis.com%2Fcss%3Ffamily%3DArchitects%2BDaughter;fontSize=20;" vertex="1" parent="1">
          <mxGeometry x="40" y="40" width="1590" height="3090" as="geometry" />
        </mxCell>
        <mxCell id="xneqZ8ylWnATX5Zpt98E-5" value="" style="rounded=0;whiteSpace=wrap;html=1;sketch=1;hachureGap=4;jiggle=2;curveFitting=1;fontFamily=Architects Daughter;fontSource=https%3A%2F%2Ffonts.googleapis.com%2Fcss%3Ffamily%3DArchitects%2BDaughter;fontSize=20;" vertex="1" parent="1">
          <mxGeometry x="190" y="40" width="1430" height="3080" as="geometry" />
        </mxCell>
        <mxCell id="xneqZ8ylWnATX5Zpt98E-4" value="" style="triangle;whiteSpace=wrap;html=1;sketch=1;hachureGap=4;jiggle=2;curveFitting=1;fontFamily=Architects Daughter;fontSource=https%3A%2F%2Ffonts.googleapis.com%2Fcss%3Ffamily%3DArchitects%2BDaughter;fontSize=20;" vertex="1" parent="1">
          <mxGeometry x="75" y="1315" width="60" height="80" as="geometry" />
        </mxCell>
        <mxCell id="xneqZ8ylWnATX5Zpt98E-6" value="" style="rounded=0;whiteSpace=wrap;html=1;sketch=1;hachureGap=4;jiggle=2;curveFitting=1;fontFamily=Architects Daughter;fontSource=https%3A%2F%2Ffonts.googleapis.com%2Fcss%3Ffamily%3DArchitects%2BDaughter;fontSize=20;fillColor=#6d8764;fontColor=#ffffff;strokeColor=#3A5431;" vertex="1" parent="1">
          <mxGeometry x="220" y="90" width="650" height="470" as="geometry" />
        </mxCell>
        <mxCell id="xneqZ8ylWnATX5Zpt98E-8" value="Lorem ipsum dolor sit amet, consectetur adipiscing elit, sed do eiusmod &lt;br style=&quot;font-size: 47px;&quot;&gt;tempor incididunt ut labore&amp;nbsp;" style="rounded=0;whiteSpace=wrap;html=1;sketch=1;hachureGap=4;jiggle=2;curveFitting=1;fontFamily=Architects Daughter;fontSource=https%3A%2F%2Ffonts.googleapis.com%2Fcss%3Ffamily%3DArchitects%2BDaughter;fontSize=47;align=left;" vertex="1" parent="1">
          <mxGeometry x="220" y="560" width="650" height="280" as="geometry" />
        </mxCell>
        <mxCell id="xneqZ8ylWnATX5Zpt98E-9" value="" style="rhombus;whiteSpace=wrap;html=1;sketch=1;hachureGap=4;jiggle=2;curveFitting=1;fontFamily=Architects Daughter;fontSource=https%3A%2F%2Ffonts.googleapis.com%2Fcss%3Ffamily%3DArchitects%2BDaughter;fontSize=20;fillColor=#f0a30a;fontColor=#000000;strokeColor=#BD7000;" vertex="1" parent="1">
          <mxGeometry x="220" y="870" width="80" height="80" as="geometry" />
        </mxCell>
        <mxCell id="xneqZ8ylWnATX5Zpt98E-10" value="" style="rhombus;whiteSpace=wrap;html=1;sketch=1;hachureGap=4;jiggle=2;curveFitting=1;fontFamily=Architects Daughter;fontSource=https%3A%2F%2Ffonts.googleapis.com%2Fcss%3Ffamily%3DArchitects%2BDaughter;fontSize=20;fillColor=#f0a30a;fontColor=#000000;strokeColor=#BD7000;" vertex="1" parent="1">
          <mxGeometry x="310" y="870" width="80" height="80" as="geometry" />
        </mxCell>
        <mxCell id="xneqZ8ylWnATX5Zpt98E-11" value="" style="rhombus;whiteSpace=wrap;html=1;sketch=1;hachureGap=4;jiggle=2;curveFitting=1;fontFamily=Architects Daughter;fontSource=https%3A%2F%2Ffonts.googleapis.com%2Fcss%3Ffamily%3DArchitects%2BDaughter;fontSize=20;fillColor=#f0a30a;fontColor=#000000;strokeColor=#BD7000;" vertex="1" parent="1">
          <mxGeometry x="400" y="870" width="80" height="80" as="geometry" />
        </mxCell>
        <mxCell id="xneqZ8ylWnATX5Zpt98E-12" value="" style="rhombus;whiteSpace=wrap;html=1;sketch=1;hachureGap=4;jiggle=2;curveFitting=1;fontFamily=Architects Daughter;fontSource=https%3A%2F%2Ffonts.googleapis.com%2Fcss%3Ffamily%3DArchitects%2BDaughter;fontSize=20;fillColor=#f0a30a;fontColor=#000000;strokeColor=#BD7000;" vertex="1" parent="1">
          <mxGeometry x="490" y="870" width="80" height="80" as="geometry" />
        </mxCell>
        <mxCell id="xneqZ8ylWnATX5Zpt98E-13" value="" style="rhombus;whiteSpace=wrap;html=1;sketch=1;hachureGap=4;jiggle=2;curveFitting=1;fontFamily=Architects Daughter;fontSource=https%3A%2F%2Ffonts.googleapis.com%2Fcss%3Ffamily%3DArchitects%2BDaughter;fontSize=20;" vertex="1" parent="1">
          <mxGeometry x="580" y="870" width="80" height="80" as="geometry" />
        </mxCell>
        <mxCell id="xneqZ8ylWnATX5Zpt98E-14" value="$14.99" style="rounded=0;whiteSpace=wrap;html=1;sketch=1;hachureGap=4;jiggle=2;curveFitting=1;fontFamily=Architects Daughter;fontSource=https%3A%2F%2Ffonts.googleapis.com%2Fcss%3Ffamily%3DArchitects%2BDaughter;fontSize=63;align=left;" vertex="1" parent="1">
          <mxGeometry x="220" y="1010" width="640" height="110" as="geometry" />
        </mxCell>
        <mxCell id="xneqZ8ylWnATX5Zpt98E-15" value="" style="rounded=0;whiteSpace=wrap;html=1;sketch=1;hachureGap=4;jiggle=2;curveFitting=1;fontFamily=Architects Daughter;fontSource=https%3A%2F%2Ffonts.googleapis.com%2Fcss%3Ffamily%3DArchitects%2BDaughter;fontSize=20;fillColor=#6d8764;fontColor=#ffffff;strokeColor=#3A5431;" vertex="1" parent="1">
          <mxGeometry x="910" y="90" width="650" height="470" as="geometry" />
        </mxCell>
        <mxCell id="xneqZ8ylWnATX5Zpt98E-16" value="Lorem ipsum dolor sit amet, consectetur adipiscing elit, sed do eiusmod &lt;br style=&quot;font-size: 47px;&quot;&gt;tempor incididunt ut labore&amp;nbsp;" style="rounded=0;whiteSpace=wrap;html=1;sketch=1;hachureGap=4;jiggle=2;curveFitting=1;fontFamily=Architects Daughter;fontSource=https%3A%2F%2Ffonts.googleapis.com%2Fcss%3Ffamily%3DArchitects%2BDaughter;fontSize=47;align=left;" vertex="1" parent="1">
          <mxGeometry x="910" y="560" width="650" height="280" as="geometry" />
        </mxCell>
        <mxCell id="xneqZ8ylWnATX5Zpt98E-17" value="" style="rhombus;whiteSpace=wrap;html=1;sketch=1;hachureGap=4;jiggle=2;curveFitting=1;fontFamily=Architects Daughter;fontSource=https%3A%2F%2Ffonts.googleapis.com%2Fcss%3Ffamily%3DArchitects%2BDaughter;fontSize=20;fillColor=#f0a30a;fontColor=#000000;strokeColor=#BD7000;" vertex="1" parent="1">
          <mxGeometry x="910" y="870" width="80" height="80" as="geometry" />
        </mxCell>
        <mxCell id="xneqZ8ylWnATX5Zpt98E-18" value="" style="rhombus;whiteSpace=wrap;html=1;sketch=1;hachureGap=4;jiggle=2;curveFitting=1;fontFamily=Architects Daughter;fontSource=https%3A%2F%2Ffonts.googleapis.com%2Fcss%3Ffamily%3DArchitects%2BDaughter;fontSize=20;fillColor=#f0a30a;fontColor=#000000;strokeColor=#BD7000;" vertex="1" parent="1">
          <mxGeometry x="1000" y="870" width="80" height="80" as="geometry" />
        </mxCell>
        <mxCell id="xneqZ8ylWnATX5Zpt98E-19" value="" style="rhombus;whiteSpace=wrap;html=1;sketch=1;hachureGap=4;jiggle=2;curveFitting=1;fontFamily=Architects Daughter;fontSource=https%3A%2F%2Ffonts.googleapis.com%2Fcss%3Ffamily%3DArchitects%2BDaughter;fontSize=20;fillColor=#f0a30a;fontColor=#000000;strokeColor=#BD7000;" vertex="1" parent="1">
          <mxGeometry x="1090" y="870" width="80" height="80" as="geometry" />
        </mxCell>
        <mxCell id="xneqZ8ylWnATX5Zpt98E-20" value="" style="rhombus;whiteSpace=wrap;html=1;sketch=1;hachureGap=4;jiggle=2;curveFitting=1;fontFamily=Architects Daughter;fontSource=https%3A%2F%2Ffonts.googleapis.com%2Fcss%3Ffamily%3DArchitects%2BDaughter;fontSize=20;fillColor=#f0a30a;fontColor=#000000;strokeColor=#BD7000;" vertex="1" parent="1">
          <mxGeometry x="1180" y="870" width="80" height="80" as="geometry" />
        </mxCell>
        <mxCell id="xneqZ8ylWnATX5Zpt98E-21" value="" style="rhombus;whiteSpace=wrap;html=1;sketch=1;hachureGap=4;jiggle=2;curveFitting=1;fontFamily=Architects Daughter;fontSource=https%3A%2F%2Ffonts.googleapis.com%2Fcss%3Ffamily%3DArchitects%2BDaughter;fontSize=20;" vertex="1" parent="1">
          <mxGeometry x="1270" y="870" width="80" height="80" as="geometry" />
        </mxCell>
        <mxCell id="xneqZ8ylWnATX5Zpt98E-22" value="$14.99" style="rounded=0;whiteSpace=wrap;html=1;sketch=1;hachureGap=4;jiggle=2;curveFitting=1;fontFamily=Architects Daughter;fontSource=https%3A%2F%2Ffonts.googleapis.com%2Fcss%3Ffamily%3DArchitects%2BDaughter;fontSize=63;align=left;" vertex="1" parent="1">
          <mxGeometry x="910" y="1010" width="640" height="110" as="geometry" />
        </mxCell>
        <mxCell id="xneqZ8ylWnATX5Zpt98E-23" value="" style="rounded=0;whiteSpace=wrap;html=1;sketch=1;hachureGap=4;jiggle=2;curveFitting=1;fontFamily=Architects Daughter;fontSource=https%3A%2F%2Ffonts.googleapis.com%2Fcss%3Ffamily%3DArchitects%2BDaughter;fontSize=20;fillColor=#6d8764;fontColor=#ffffff;strokeColor=#3A5431;" vertex="1" parent="1">
          <mxGeometry x="220" y="1340" width="650" height="470" as="geometry" />
        </mxCell>
        <mxCell id="xneqZ8ylWnATX5Zpt98E-24" value="Lorem ipsum dolor sit amet, consectetur adipiscing elit, sed do eiusmod &lt;br style=&quot;font-size: 47px;&quot;&gt;tempor incididunt ut labore&amp;nbsp;" style="rounded=0;whiteSpace=wrap;html=1;sketch=1;hachureGap=4;jiggle=2;curveFitting=1;fontFamily=Architects Daughter;fontSource=https%3A%2F%2Ffonts.googleapis.com%2Fcss%3Ffamily%3DArchitects%2BDaughter;fontSize=47;align=left;" vertex="1" parent="1">
          <mxGeometry x="220" y="1810" width="650" height="280" as="geometry" />
        </mxCell>
        <mxCell id="xneqZ8ylWnATX5Zpt98E-25" value="" style="rhombus;whiteSpace=wrap;html=1;sketch=1;hachureGap=4;jiggle=2;curveFitting=1;fontFamily=Architects Daughter;fontSource=https%3A%2F%2Ffonts.googleapis.com%2Fcss%3Ffamily%3DArchitects%2BDaughter;fontSize=20;fillColor=#f0a30a;fontColor=#000000;strokeColor=#BD7000;" vertex="1" parent="1">
          <mxGeometry x="220" y="2120" width="80" height="80" as="geometry" />
        </mxCell>
        <mxCell id="xneqZ8ylWnATX5Zpt98E-26" value="" style="rhombus;whiteSpace=wrap;html=1;sketch=1;hachureGap=4;jiggle=2;curveFitting=1;fontFamily=Architects Daughter;fontSource=https%3A%2F%2Ffonts.googleapis.com%2Fcss%3Ffamily%3DArchitects%2BDaughter;fontSize=20;fillColor=#f0a30a;fontColor=#000000;strokeColor=#BD7000;" vertex="1" parent="1">
          <mxGeometry x="310" y="2120" width="80" height="80" as="geometry" />
        </mxCell>
        <mxCell id="xneqZ8ylWnATX5Zpt98E-27" value="" style="rhombus;whiteSpace=wrap;html=1;sketch=1;hachureGap=4;jiggle=2;curveFitting=1;fontFamily=Architects Daughter;fontSource=https%3A%2F%2Ffonts.googleapis.com%2Fcss%3Ffamily%3DArchitects%2BDaughter;fontSize=20;fillColor=#f0a30a;fontColor=#000000;strokeColor=#BD7000;" vertex="1" parent="1">
          <mxGeometry x="400" y="2120" width="80" height="80" as="geometry" />
        </mxCell>
        <mxCell id="xneqZ8ylWnATX5Zpt98E-28" value="" style="rhombus;whiteSpace=wrap;html=1;sketch=1;hachureGap=4;jiggle=2;curveFitting=1;fontFamily=Architects Daughter;fontSource=https%3A%2F%2Ffonts.googleapis.com%2Fcss%3Ffamily%3DArchitects%2BDaughter;fontSize=20;fillColor=#f0a30a;fontColor=#000000;strokeColor=#BD7000;" vertex="1" parent="1">
          <mxGeometry x="490" y="2120" width="80" height="80" as="geometry" />
        </mxCell>
        <mxCell id="xneqZ8ylWnATX5Zpt98E-29" value="" style="rhombus;whiteSpace=wrap;html=1;sketch=1;hachureGap=4;jiggle=2;curveFitting=1;fontFamily=Architects Daughter;fontSource=https%3A%2F%2Ffonts.googleapis.com%2Fcss%3Ffamily%3DArchitects%2BDaughter;fontSize=20;" vertex="1" parent="1">
          <mxGeometry x="580" y="2120" width="80" height="80" as="geometry" />
        </mxCell>
        <mxCell id="xneqZ8ylWnATX5Zpt98E-30" value="$14.99" style="rounded=0;whiteSpace=wrap;html=1;sketch=1;hachureGap=4;jiggle=2;curveFitting=1;fontFamily=Architects Daughter;fontSource=https%3A%2F%2Ffonts.googleapis.com%2Fcss%3Ffamily%3DArchitects%2BDaughter;fontSize=63;align=left;" vertex="1" parent="1">
          <mxGeometry x="220" y="2260" width="640" height="110" as="geometry" />
        </mxCell>
        <mxCell id="xneqZ8ylWnATX5Zpt98E-31" value="" style="rounded=0;whiteSpace=wrap;html=1;sketch=1;hachureGap=4;jiggle=2;curveFitting=1;fontFamily=Architects Daughter;fontSource=https%3A%2F%2Ffonts.googleapis.com%2Fcss%3Ffamily%3DArchitects%2BDaughter;fontSize=20;fillColor=#6d8764;fontColor=#ffffff;strokeColor=#3A5431;" vertex="1" parent="1">
          <mxGeometry x="910" y="1340" width="650" height="470" as="geometry" />
        </mxCell>
        <mxCell id="xneqZ8ylWnATX5Zpt98E-32" value="Lorem ipsum dolor sit amet, consectetur adipiscing elit, sed do eiusmod &lt;br style=&quot;font-size: 47px;&quot;&gt;tempor incididunt ut labore&amp;nbsp;" style="rounded=0;whiteSpace=wrap;html=1;sketch=1;hachureGap=4;jiggle=2;curveFitting=1;fontFamily=Architects Daughter;fontSource=https%3A%2F%2Ffonts.googleapis.com%2Fcss%3Ffamily%3DArchitects%2BDaughter;fontSize=47;align=left;" vertex="1" parent="1">
          <mxGeometry x="910" y="1810" width="650" height="280" as="geometry" />
        </mxCell>
        <mxCell id="xneqZ8ylWnATX5Zpt98E-33" value="" style="rhombus;whiteSpace=wrap;html=1;sketch=1;hachureGap=4;jiggle=2;curveFitting=1;fontFamily=Architects Daughter;fontSource=https%3A%2F%2Ffonts.googleapis.com%2Fcss%3Ffamily%3DArchitects%2BDaughter;fontSize=20;fillColor=#f0a30a;fontColor=#000000;strokeColor=#BD7000;" vertex="1" parent="1">
          <mxGeometry x="910" y="2120" width="80" height="80" as="geometry" />
        </mxCell>
        <mxCell id="xneqZ8ylWnATX5Zpt98E-34" value="" style="rhombus;whiteSpace=wrap;html=1;sketch=1;hachureGap=4;jiggle=2;curveFitting=1;fontFamily=Architects Daughter;fontSource=https%3A%2F%2Ffonts.googleapis.com%2Fcss%3Ffamily%3DArchitects%2BDaughter;fontSize=20;fillColor=#f0a30a;fontColor=#000000;strokeColor=#BD7000;" vertex="1" parent="1">
          <mxGeometry x="1000" y="2120" width="80" height="80" as="geometry" />
        </mxCell>
        <mxCell id="xneqZ8ylWnATX5Zpt98E-35" value="" style="rhombus;whiteSpace=wrap;html=1;sketch=1;hachureGap=4;jiggle=2;curveFitting=1;fontFamily=Architects Daughter;fontSource=https%3A%2F%2Ffonts.googleapis.com%2Fcss%3Ffamily%3DArchitects%2BDaughter;fontSize=20;fillColor=#f0a30a;fontColor=#000000;strokeColor=#BD7000;" vertex="1" parent="1">
          <mxGeometry x="1090" y="2120" width="80" height="80" as="geometry" />
        </mxCell>
        <mxCell id="xneqZ8ylWnATX5Zpt98E-36" value="" style="rhombus;whiteSpace=wrap;html=1;sketch=1;hachureGap=4;jiggle=2;curveFitting=1;fontFamily=Architects Daughter;fontSource=https%3A%2F%2Ffonts.googleapis.com%2Fcss%3Ffamily%3DArchitects%2BDaughter;fontSize=20;fillColor=#f0a30a;fontColor=#000000;strokeColor=#BD7000;" vertex="1" parent="1">
          <mxGeometry x="1180" y="2120" width="80" height="80" as="geometry" />
        </mxCell>
        <mxCell id="xneqZ8ylWnATX5Zpt98E-37" value="" style="rhombus;whiteSpace=wrap;html=1;sketch=1;hachureGap=4;jiggle=2;curveFitting=1;fontFamily=Architects Daughter;fontSource=https%3A%2F%2Ffonts.googleapis.com%2Fcss%3Ffamily%3DArchitects%2BDaughter;fontSize=20;" vertex="1" parent="1">
          <mxGeometry x="1270" y="2120" width="80" height="80" as="geometry" />
        </mxCell>
        <mxCell id="xneqZ8ylWnATX5Zpt98E-38" value="$14.99" style="rounded=0;whiteSpace=wrap;html=1;sketch=1;hachureGap=4;jiggle=2;curveFitting=1;fontFamily=Architects Daughter;fontSource=https%3A%2F%2Ffonts.googleapis.com%2Fcss%3Ffamily%3DArchitects%2BDaughter;fontSize=63;align=left;" vertex="1" parent="1">
          <mxGeometry x="910" y="2260" width="640" height="110" as="geometry" />
        </mxCell>
        <mxCell id="xneqZ8ylWnATX5Zpt98E-39" value="" style="rounded=0;whiteSpace=wrap;html=1;sketch=1;hachureGap=4;jiggle=2;curveFitting=1;fontFamily=Architects Daughter;fontSource=https%3A%2F%2Ffonts.googleapis.com%2Fcss%3Ffamily%3DArchitects%2BDaughter;fontSize=20;fillColor=#6d8764;fontColor=#ffffff;strokeColor=#3A5431;" vertex="1" parent="1">
          <mxGeometry x="220" y="2650" width="650" height="470" as="geometry" />
        </mxCell>
        <mxCell id="xneqZ8ylWnATX5Zpt98E-40" value="" style="rounded=0;whiteSpace=wrap;html=1;sketch=1;hachureGap=4;jiggle=2;curveFitting=1;fontFamily=Architects Daughter;fontSource=https%3A%2F%2Ffonts.googleapis.com%2Fcss%3Ffamily%3DArchitects%2BDaughter;fontSize=20;fillColor=#6d8764;fontColor=#ffffff;strokeColor=#3A5431;" vertex="1" parent="1">
          <mxGeometry x="910" y="2650" width="650" height="470" as="geometry" />
        </mxCell>
      </root>
    </mxGraphModel>
  </diagram>
</mxfile>
